{
	"asset":{
		"generator":"Khronos glTF Blender I/O v3.5.30",
		"version":"2.0"
	},
	"scene":0,
	"scenes":[
		{
			"name":"Scene",
			"nodes":[
				0,
				1,
				2,
				3,
				4
			]
		}
	],
	"nodes":[
		{
			"mesh":0,
			"name":"Blue",
			"rotation":[
				0.7067655324935913,
				0,
				0,
				0.7074478268623352
			],
			"translation":[
				-0.01800486259162426,
				-5.545048043131828e-05,
				3.745777576114051e-06
			]
		},
		{
			"mesh":1,
			"name":"Green",
			"rotation":[
				0.7067655324935913,
				0,
				0,
				0.7074478268623352
			],
			"translation":[
				-0.01800486259162426,
				-5.545048043131828e-05,
				3.745777576114051e-06
			]
		},
		{
			"mesh":2,
			"name":"Orange",
			"rotation":[
				0.7067655324935913,
				0,
				0,
				0.7074478268623352
			],
			"translation":[
				-0.01800486259162426,
				-5.545048043131828e-05,
				3.745777576114051e-06
			]
		},
		{
			"mesh":3,
			"name":"Red",
			"rotation":[
				0.7067655324935913,
				0,
				0,
				0.7074478268623352
			],
			"translation":[
				-0.01800486259162426,
				-5.5499374866485596e-05,
				-4.688368790084496e-05
			]
		},
		{
			"mesh":4,
			"name":"Purple",
			"rotation":[
				0.7067655324935913,
				0,
				0,
				0.7074478268623352
			],
			"translation":[
				-0.01800486259162426,
				-5.541974678635597e-05,
				3.564681901480071e-05
			]
		}
	],
	"materials":[
		{
			"doubleSided":true,
			"name":"SVGBlue",
			"pbrMetallicRoughness":{
				"baseColorFactor":[
					0.01032982300966978,
					0.5028864741325378,
					0.9911020994186401,
					1
				],
				"metallicFactor":0,
				"roughnessFactor":0.4000000059604645
			}
		},
		{
			"doubleSided":true,
			"name":"SVGGreen",
			"pbrMetallicRoughness":{
				"baseColorFactor":[
					0.0030352699104696512,
					0.6239603757858276,
					0.22696587443351746,
					1
				],
				"metallicFactor":0,
				"roughnessFactor":0.4000000059604645
			}
		},
		{
			"doubleSided":true,
			"name":"SVGOrange",
			"pbrMetallicRoughness":{
				"baseColorFactor":[
					1,
					0.16826939582824707,
					0.12213877588510513,
					1
				],
				"metallicFactor":0,
				"roughnessFactor":0.4000000059604645
			}
		},
		{
			"doubleSided":true,
			"name":"SVGRed",
			"pbrMetallicRoughness":{
				"baseColorFactor":[
					0.8879231214523315,
					0.07618538290262222,
					0.012983032502233982,
					1
				],
				"metallicFactor":0,
				"roughnessFactor":0.4000000059604645
			}
		},
		{
			"doubleSided":true,
			"name":"SVGPurple",
			"pbrMetallicRoughness":{
				"baseColorFactor":[
					0.3613067865371704,
					0.09989872574806213,
					1,
					1
				],
				"metallicFactor":0,
				"roughnessFactor":0.4000000059604645
			}
		}
	],
	"meshes":[
		{
			"name":"Curve.005",
			"primitives":[
				{
					"attributes":{
						"POSITION":0,
						"TEXCOORD_0":1,
						"NORMAL":2
					},
					"indices":3,
					"material":0
				}
			]
		},
		{
			"name":"Curve.006",
			"primitives":[
				{
					"attributes":{
						"POSITION":4,
						"TEXCOORD_0":5,
						"NORMAL":6
					},
					"indices":7,
					"material":1
				}
			]
		},
		{
			"name":"Curve.007",
			"primitives":[
				{
					"attributes":{
						"POSITION":8,
						"TEXCOORD_0":9,
						"NORMAL":10
					},
					"indices":11,
					"material":2
				}
			]
		},
		{
			"name":"Curve.008",
			"primitives":[
				{
					"attributes":{
						"POSITION":12,
						"TEXCOORD_0":13,
						"NORMAL":14
					},
					"indices":15,
					"material":3
				}
			]
		},
		{
			"name":"Curve.009",
			"primitives":[
				{
					"attributes":{
						"POSITION":16,
						"TEXCOORD_0":17,
						"NORMAL":18
					},
					"indices":19,
					"material":4
				}
			]
		}
	],
	"accessors":[
		{
			"bufferView":0,
			"componentType":5126,
			"count":386,
			"max":[
				0.035748690366744995,
				0.004999999888241291,
				-0.017870571464300156
			],
			"min":[
				0.017874345183372498,
				-0.004999999888241291,
				-0.03574128448963165
			],
			"type":"VEC3"
		},
		{
			"bufferView":1,
			"componentType":5126,
			"count":386,
			"type":"VEC2"
		},
		{
			"bufferView":2,
			"componentType":5126,
			"count":386,
			"type":"VEC3"
		},
		{
			"bufferView":3,
			"componentType":5123,
			"count":1140,
			"type":"SCALAR"
		},
		{
			"bufferView":4,
			"componentType":5126,
			"count":342,
			"max":[
				0.017874345183372498,
				0.004999999888241291,
				0
			],
			"min":[
				-9.258884148266588e-08,
				-0.004999999888241291,
				-0.017870571464300156
			],
			"type":"VEC3"
		},
		{
			"bufferView":5,
			"componentType":5126,
			"count":342,
			"type":"VEC2"
		},
		{
			"bufferView":6,
			"componentType":5126,
			"count":342,
			"type":"VEC3"
		},
		{
			"bufferView":7,
			"componentType":5123,
			"count":1008,
			"type":"SCALAR"
		},
		{
			"bufferView":8,
			"componentType":5126,
			"count":250,
			"max":[
				0.035748690366744995,
				0.004999999888241291,
				-0.03574128448963165
			],
			"min":[
				0.017874345183372498,
				-0.004999999888241291,
				-0.05361194163560867
			],
			"type":"VEC3"
		},
		{
			"bufferView":9,
			"componentType":5126,
			"count":250,
			"type":"VEC2"
		},
		{
			"bufferView":10,
			"componentType":5126,
			"count":250,
			"type":"VEC3"
		},
		{
			"bufferView":11,
			"componentType":5123,
			"count":732,
			"type":"SCALAR"
		},
		{
			"bufferView":12,
			"componentType":5126,
			"count":255,
			"max":[
				0.017874401062726974,
				0.004999999888241291,
				-0.035741254687309265
			],
			"min":[
				-4.306460610337126e-08,
				-0.004999999888241291,
				-0.05361192673444748
			],
			"type":"VEC3"
		},
		{
			"bufferView":13,
			"componentType":5126,
			"count":255,
			"type":"VEC2"
		},
		{
			"bufferView":14,
			"componentType":5126,
			"count":255,
			"type":"VEC3"
		},
		{
			"bufferView":15,
			"componentType":5123,
			"count":732,
			"type":"SCALAR"
		},
		{
			"bufferView":16,
			"componentType":5126,
			"count":259,
			"max":[
				0.017874345183372498,
				0.004999999888241291,
				-0.017870571464300156
			],
			"min":[
				-9.258884148266588e-08,
				-0.004999999888241291,
				-0.03574128448963165
			],
			"type":"VEC3"
		},
		{
			"bufferView":17,
			"componentType":5126,
			"count":259,
			"type":"VEC2"
		},
		{
			"bufferView":18,
			"componentType":5126,
			"count":259,
			"type":"VEC3"
		},
		{
			"bufferView":19,
			"componentType":5123,
			"count":732,
			"type":"SCALAR"
		}
	],
	"bufferViews":[
		{
			"buffer":0,
			"byteLength":4632,
			"byteOffset":0,
			"target":34962
		},
		{
			"buffer":0,
			"byteLength":3088,
			"byteOffset":4632,
			"target":34962
		},
		{
			"buffer":0,
			"byteLength":4632,
			"byteOffset":7720,
			"target":34962
		},
		{
			"buffer":0,
			"byteLength":2280,
			"byteOffset":12352,
			"target":34963
		},
		{
			"buffer":0,
			"byteLength":4104,
			"byteOffset":14632,
			"target":34962
		},
		{
			"buffer":0,
			"byteLength":2736,
			"byteOffset":18736,
			"target":34962
		},
		{
			"buffer":0,
			"byteLength":4104,
			"byteOffset":21472,
			"target":34962
		},
		{
			"buffer":0,
			"byteLength":2016,
			"byteOffset":25576,
			"target":34963
		},
		{
			"buffer":0,
			"byteLength":3000,
			"byteOffset":27592,
			"target":34962
		},
		{
			"buffer":0,
			"byteLength":2000,
			"byteOffset":30592,
			"target":34962
		},
		{
			"buffer":0,
			"byteLength":3000,
			"byteOffset":32592,
			"target":34962
		},
		{
			"buffer":0,
			"byteLength":1464,
			"byteOffset":35592,
			"target":34963
		},
		{
			"buffer":0,
			"byteLength":3060,
			"byteOffset":37056,
			"target":34962
		},
		{
			"buffer":0,
			"byteLength":2040,
			"byteOffset":40116,
			"target":34962
		},
		{
			"buffer":0,
			"byteLength":3060,
			"byteOffset":42156,
			"target":34962
		},
		{
			"buffer":0,
			"byteLength":1464,
			"byteOffset":45216,
			"target":34963
		},
		{
			"buffer":0,
			"byteLength":3108,
			"byteOffset":46680,
			"target":34962
		},
		{
			"buffer":0,
			"byteLength":2072,
			"byteOffset":49788,
			"target":34962
		},
		{
			"buffer":0,
			"byteLength":3108,
			"byteOffset":51860,
			"target":34962
		},
		{
			"buffer":0,
			"byteLength":1464,
			"byteOffset":54968,
			"target":34963
		}
	],
	"buffers":[
		{
			"byteLength":56432,
			"uri":"data:application/octet-stream;base64,"
		}
	]
}
