{
	"asset":{
		"generator":"Khronos glTF Blender I/O v3.5.30",
		"version":"2.0"
	},
	"scene":0,
	"scenes":[
		{
			"name":"Scene",
			"nodes":[
				7
			]
		}
	],
	"nodes":[
		{
			"mesh":0,
			"name":"CenterBottom"
		},
		{
			"mesh":1,
			"name":"LeftBottom"
		},
		{
			"mesh":2,
			"name":"RightBottom"
		},
		{
			"mesh":3,
			"name":"TopFurtherLeft"
		},
		{
			"mesh":4,
			"name":"TopFurtherRight"
		},
		{
			"mesh":5,
			"name":"TopLeft"
		},
		{
			"mesh":6,
			"name":"TopRight"
		},
		{
			"children":[
				0,
				1,
				2,
				3,
				4,
				5,
				6
			],
			"mesh":7,
			"name":"Center",
			"rotation":[
				0.7068703174591064,
				0,
				0,
				0.7073431611061096
			],
			"translation":[
				-0.030680283904075623,
				-0.025835150852799416,
				-0.0003824867308139801
			]
		}
	],
	"materials":[
		{
			"doubleSided":true,
			"name":"Yellow",
			"pbrMetallicRoughness":{
				"baseColorFactor":[
					0.9822505712509155,
					0.41788506507873535,
					0,
					1
				],
				"metallicFactor":0,
				"roughnessFactor":0.4000000059604645
			}
		},
		{
			"doubleSided":true,
			"name":"Orange",
			"pbrMetallicRoughness":{
				"baseColorFactor":[
					0.8227857351303101,
					0.14995978772640228,
					0,
					1
				],
				"metallicFactor":0,
				"roughnessFactor":0.4000000059604645
			}
		},
		{
			"doubleSided":true,
			"name":"DarkerYellow",
			"pbrMetallicRoughness":{
				"baseColorFactor":[
					0.9822505712509155,
					0.41788506507873535,
					0,
					1
				],
				"metallicFactor":0,
				"roughnessFactor":0.4000000059604645
			}
		},
		{
			"doubleSided":true,
			"name":"DarkishYellow",
			"pbrMetallicRoughness":{
				"baseColorFactor":[
					0.9822505712509155,
					0.6444796919822693,
					0.03071344457566738,
					1
				],
				"metallicFactor":0,
				"roughnessFactor":0.4000000059604645
			}
		},
		{
			"doubleSided":true,
			"name":"BrightYellow",
			"pbrMetallicRoughness":{
				"baseColorFactor":[
					0.9911020994186401,
					0.8549926280975342,
					0.47353148460388184,
					1
				],
				"metallicFactor":0,
				"roughnessFactor":0.4000000059604645
			}
		}
	],
	"meshes":[
		{
			"name":"Curve.003",
			"primitives":[
				{
					"attributes":{
						"POSITION":0,
						"TEXCOORD_0":1,
						"NORMAL":2
					},
					"indices":3,
					"material":0
				}
			]
		},
		{
			"name":"Curve.001",
			"primitives":[
				{
					"attributes":{
						"POSITION":4,
						"TEXCOORD_0":5,
						"NORMAL":6
					},
					"indices":7,
					"material":1
				}
			]
		},
		{
			"name":"Curve.002",
			"primitives":[
				{
					"attributes":{
						"POSITION":8,
						"TEXCOORD_0":9,
						"NORMAL":10
					},
					"indices":3,
					"material":1
				}
			]
		},
		{
			"name":"Curve.007",
			"primitives":[
				{
					"attributes":{
						"POSITION":11,
						"TEXCOORD_0":12,
						"NORMAL":13
					},
					"indices":14,
					"material":2
				}
			]
		},
		{
			"name":"Curve.006",
			"primitives":[
				{
					"attributes":{
						"POSITION":15,
						"TEXCOORD_0":16,
						"NORMAL":17
					},
					"indices":7,
					"material":2
				}
			]
		},
		{
			"name":"Curve.004",
			"primitives":[
				{
					"attributes":{
						"POSITION":18,
						"TEXCOORD_0":19,
						"NORMAL":20
					},
					"indices":3,
					"material":3
				}
			]
		},
		{
			"name":"Curve.005",
			"primitives":[
				{
					"attributes":{
						"POSITION":21,
						"TEXCOORD_0":22,
						"NORMAL":23
					},
					"indices":3,
					"material":3
				}
			]
		},
		{
			"name":"TopCenter",
			"primitives":[
				{
					"attributes":{
						"POSITION":24,
						"TEXCOORD_0":25,
						"NORMAL":26
					},
					"indices":3,
					"material":4
				}
			]
		}
	],
	"accessors":[
		{
			"bufferView":0,
			"componentType":5126,
			"count":14,
			"max":[
				0.04829259589314461,
				0.004999999888241291,
				-2.7086585760116577e-05
			],
			"min":[
				0.012264246121048927,
				-0.004999999888241291,
				-0.03523067384958267
			],
			"type":"VEC3"
		},
		{
			"bufferView":1,
			"componentType":5126,
			"count":14,
			"type":"VEC2"
		},
		{
			"bufferView":2,
			"componentType":5126,
			"count":14,
			"type":"VEC3"
		},
		{
			"bufferView":3,
			"componentType":5123,
			"count":24,
			"type":"SCALAR"
		},
		{
			"bufferView":4,
			"componentType":5126,
			"count":14,
			"max":[
				0.030278265476226807,
				0.004999999888241291,
				-2.7086585760116577e-05
			],
			"min":[
				0,
				-0.004999999888241291,
				-0.03523067384958267
			],
			"type":"VEC3"
		},
		{
			"bufferView":5,
			"componentType":5126,
			"count":14,
			"type":"VEC2"
		},
		{
			"bufferView":6,
			"componentType":5126,
			"count":14,
			"type":"VEC3"
		},
		{
			"bufferView":7,
			"componentType":5123,
			"count":24,
			"type":"SCALAR"
		},
		{
			"bufferView":8,
			"componentType":5126,
			"count":14,
			"max":[
				0.06055653095245361,
				0.004999999888241291,
				-2.7086585760116577e-05
			],
			"min":[
				0.030278265476226807,
				-0.004999999888241291,
				-0.03523067384958267
			],
			"type":"VEC3"
		},
		{
			"bufferView":9,
			"componentType":5126,
			"count":14,
			"type":"VEC2"
		},
		{
			"bufferView":10,
			"componentType":5126,
			"count":14,
			"type":"VEC3"
		},
		{
			"bufferView":11,
			"componentType":5126,
			"count":14,
			"max":[
				0.013212306424975395,
				0.004999999888241291,
				-0.03523069992661476
			],
			"min":[
				0,
				-0.004999999888241291,
				-0.05293929576873779
			],
			"type":"VEC3"
		},
		{
			"bufferView":12,
			"componentType":5126,
			"count":14,
			"type":"VEC2"
		},
		{
			"bufferView":13,
			"componentType":5126,
			"count":14,
			"type":"VEC3"
		},
		{
			"bufferView":14,
			"componentType":5123,
			"count":24,
			"type":"SCALAR"
		},
		{
			"bufferView":15,
			"componentType":5126,
			"count":14,
			"max":[
				0.060556814074516296,
				0.004999999888241291,
				-0.03523069992661476
			],
			"min":[
				0.047344308346509933,
				-0.004999999888241291,
				-0.05293929576873779
			],
			"type":"VEC3"
		},
		{
			"bufferView":16,
			"componentType":5126,
			"count":14,
			"type":"VEC2"
		},
		{
			"bufferView":17,
			"componentType":5126,
			"count":14,
			"type":"VEC3"
		},
		{
			"bufferView":18,
			"componentType":5126,
			"count":14,
			"max":[
				0.030278265476226807,
				0.004999999888241291,
				-0.03523069992661476
			],
			"min":[
				0.012264246121048927,
				-0.004999999888241291,
				-0.05474066734313965
			],
			"type":"VEC3"
		},
		{
			"bufferView":19,
			"componentType":5126,
			"count":14,
			"type":"VEC2"
		},
		{
			"bufferView":20,
			"componentType":5126,
			"count":14,
			"type":"VEC3"
		},
		{
			"bufferView":21,
			"componentType":5126,
			"count":14,
			"max":[
				0.048292312771081924,
				0.004999999888241291,
				-0.03523069992661476
			],
			"min":[
				0.030278265476226807,
				-0.004999999888241291,
				-0.05474066734313965
			],
			"type":"VEC3"
		},
		{
			"bufferView":22,
			"componentType":5126,
			"count":14,
			"type":"VEC2"
		},
		{
			"bufferView":23,
			"componentType":5126,
			"count":14,
			"type":"VEC3"
		},
		{
			"bufferView":24,
			"componentType":5126,
			"count":14,
			"max":[
				0.04829259589314461,
				0.004999999888241291,
				-0.03523069992661476
			],
			"min":[
				0.012264246121048927,
				-0.004999999888241291,
				-0.05474066734313965
			],
			"type":"VEC3"
		},
		{
			"bufferView":25,
			"componentType":5126,
			"count":14,
			"type":"VEC2"
		},
		{
			"bufferView":26,
			"componentType":5126,
			"count":14,
			"type":"VEC3"
		}
	],
	"bufferViews":[
		{
			"buffer":0,
			"byteLength":168,
			"byteOffset":0,
			"target":34962
		},
		{
			"buffer":0,
			"byteLength":112,
			"byteOffset":168,
			"target":34962
		},
		{
			"buffer":0,
			"byteLength":168,
			"byteOffset":280,
			"target":34962
		},
		{
			"buffer":0,
			"byteLength":48,
			"byteOffset":448,
			"target":34963
		},
		{
			"buffer":0,
			"byteLength":168,
			"byteOffset":496,
			"target":34962
		},
		{
			"buffer":0,
			"byteLength":112,
			"byteOffset":664,
			"target":34962
		},
		{
			"buffer":0,
			"byteLength":168,
			"byteOffset":776,
			"target":34962
		},
		{
			"buffer":0,
			"byteLength":48,
			"byteOffset":944,
			"target":34963
		},
		{
			"buffer":0,
			"byteLength":168,
			"byteOffset":992,
			"target":34962
		},
		{
			"buffer":0,
			"byteLength":112,
			"byteOffset":1160,
			"target":34962
		},
		{
			"buffer":0,
			"byteLength":168,
			"byteOffset":1272,
			"target":34962
		},
		{
			"buffer":0,
			"byteLength":168,
			"byteOffset":1440,
			"target":34962
		},
		{
			"buffer":0,
			"byteLength":112,
			"byteOffset":1608,
			"target":34962
		},
		{
			"buffer":0,
			"byteLength":168,
			"byteOffset":1720,
			"target":34962
		},
		{
			"buffer":0,
			"byteLength":48,
			"byteOffset":1888,
			"target":34963
		},
		{
			"buffer":0,
			"byteLength":168,
			"byteOffset":1936,
			"target":34962
		},
		{
			"buffer":0,
			"byteLength":112,
			"byteOffset":2104,
			"target":34962
		},
		{
			"buffer":0,
			"byteLength":168,
			"byteOffset":2216,
			"target":34962
		},
		{
			"buffer":0,
			"byteLength":168,
			"byteOffset":2384,
			"target":34962
		},
		{
			"buffer":0,
			"byteLength":112,
			"byteOffset":2552,
			"target":34962
		},
		{
			"buffer":0,
			"byteLength":168,
			"byteOffset":2664,
			"target":34962
		},
		{
			"buffer":0,
			"byteLength":168,
			"byteOffset":2832,
			"target":34962
		},
		{
			"buffer":0,
			"byteLength":112,
			"byteOffset":3000,
			"target":34962
		},
		{
			"buffer":0,
			"byteLength":168,
			"byteOffset":3112,
			"target":34962
		},
		{
			"buffer":0,
			"byteLength":168,
			"byteOffset":3280,
			"target":34962
		},
		{
			"buffer":0,
			"byteLength":112,
			"byteOffset":3448,
			"target":34962
		},
		{
			"buffer":0,
			"byteLength":168,
			"byteOffset":3560,
			"target":34962
		}
	],
	"buffers":[
		{
			"byteLength":3728,
			"uri":"data:application/octet-stream;base64,"
		}
	]
}
