{
	"asset":{
		"generator":"Khronos glTF Blender I/O v3.5.30",
		"version":"2.0"
	},
	"scene":0,
	"scenes":[
		{
			"name":"Scene",
			"nodes":[
				0,
				1,
				2,
				3
			]
		}
	],
	"nodes":[
		{
			"mesh":0,
			"name":"Top",
			"rotation":[
				0.7076128125190735,
				0,
				0,
				0.7066003680229187
			],
			"translation":[
				-0.029601458460092545,
				-0.028888171538710594,
				0
			]
		},
		{
			"mesh":1,
			"name":"Bottom",
			"rotation":[
				0.7076128125190735,
				0,
				0,
				0.7066003680229187
			],
			"translation":[
				-0.029601458460092545,
				-0.028888171538710594,
				0
			]
		},
		{
			"mesh":2,
			"name":"Arc",
			"rotation":[
				0.7076128125190735,
				0,
				0,
				0.7066003680229187
			],
			"translation":[
				-0.029601458460092545,
				-0.028888171538710594,
				0
			]
		},
		{
			"mesh":3,
			"name":"Anchor",
			"rotation":[
				0.7076128125190735,
				0,
				0,
				0.7066003680229187
			],
			"translation":[
				-0.029601458460092545,
				-0.028888171538710594,
				0
			]
		}
	],
	"materials":[
		{
			"doubleSided":true,
			"name":"Blue.002",
			"pbrMetallicRoughness":{
				"baseColorFactor":[
					0,
					0.13013647496700287,
					0.3967552185058594,
					1
				],
				"metallicFactor":0,
				"roughnessFactor":0.4000000059604645
			}
		},
		{
			"doubleSided":true,
			"name":"Blue",
			"pbrMetallicRoughness":{
				"baseColorFactor":[
					0,
					0.13013647496700287,
					0.3967552185058594,
					1
				],
				"metallicFactor":0,
				"roughnessFactor":0.4000000059604645
			}
		},
		{
			"doubleSided":true,
			"name":"LighterBlue",
			"pbrMetallicRoughness":{
				"baseColorFactor":[
					0,
					0.1946178376674652,
					0.6038273572921753,
					1
				],
				"metallicFactor":0,
				"roughnessFactor":0.4000000059604645
			}
		},
		{
			"doubleSided":true,
			"name":"LightestBlue",
			"pbrMetallicRoughness":{
				"baseColorFactor":[
					0.013702083379030228,
					0.3324515223503113,
					0.8713670969009399,
					1
				],
				"metallicFactor":0,
				"roughnessFactor":0.4000000059604645
			}
		}
	],
	"meshes":[
		{
			"name":"Curve.004",
			"primitives":[
				{
					"attributes":{
						"POSITION":0,
						"TEXCOORD_0":1,
						"NORMAL":2
					},
					"indices":3,
					"material":0
				}
			]
		},
		{
			"name":"Curve.005",
			"primitives":[
				{
					"attributes":{
						"POSITION":4,
						"TEXCOORD_0":5,
						"NORMAL":6
					},
					"indices":7,
					"material":1
				}
			]
		},
		{
			"name":"Curve.006",
			"primitives":[
				{
					"attributes":{
						"POSITION":8,
						"TEXCOORD_0":9,
						"NORMAL":10
					},
					"indices":11,
					"material":2
				}
			]
		},
		{
			"name":"Curve.007",
			"primitives":[
				{
					"attributes":{
						"POSITION":12,
						"TEXCOORD_0":13,
						"NORMAL":14
					},
					"indices":15,
					"material":3
				}
			]
		}
	],
	"accessors":[
		{
			"bufferView":0,
			"componentType":5126,
			"count":250,
			"max":[
				0.04231274873018265,
				0.004999999888241291,
				-0.0279181357473135
			],
			"min":[
				0.01679256558418274,
				-0.004999999888241291,
				-0.055361442267894745
			],
			"type":"VEC3"
		},
		{
			"bufferView":1,
			"componentType":5126,
			"count":250,
			"type":"VEC2"
		},
		{
			"bufferView":2,
			"componentType":5126,
			"count":250,
			"type":"VEC3"
		},
		{
			"bufferView":3,
			"componentType":5123,
			"count":732,
			"type":"SCALAR"
		},
		{
			"bufferView":4,
			"componentType":5126,
			"count":202,
			"max":[
				0.01674249954521656,
				0.004999999888241291,
				-0.013432521373033524
			],
			"min":[
				0.0002476733934599906,
				-0.004999999888241291,
				-0.027939101681113243
			],
			"type":"VEC3"
		},
		{
			"bufferView":5,
			"componentType":5126,
			"count":202,
			"type":"VEC2"
		},
		{
			"bufferView":6,
			"componentType":5126,
			"count":202,
			"type":"VEC3"
		},
		{
			"bufferView":7,
			"componentType":5123,
			"count":588,
			"type":"SCALAR"
		},
		{
			"bufferView":8,
			"componentType":5126,
			"count":390,
			"max":[
				0.04233419895172119,
				0.004999999888241291,
				-0.0004503391683101654
			],
			"min":[
				0.00024767350987531245,
				-0.004999999888241291,
				-0.0424639992415905
			],
			"type":"VEC3"
		},
		{
			"bufferView":9,
			"componentType":5126,
			"count":390,
			"type":"VEC2"
		},
		{
			"bufferView":10,
			"componentType":5126,
			"count":390,
			"type":"VEC3"
		},
		{
			"bufferView":11,
			"componentType":5123,
			"count":1152,
			"type":"SCALAR"
		},
		{
			"bufferView":12,
			"componentType":5126,
			"count":482,
			"max":[
				0.05644559860229492,
				0.004999999888241291,
				-9.352512279292569e-06
			],
			"min":[
				0.0388944037258625,
				-0.004999999888241291,
				-0.055867381393909454
			],
			"type":"VEC3"
		},
		{
			"bufferView":13,
			"componentType":5126,
			"count":482,
			"type":"VEC2"
		},
		{
			"bufferView":14,
			"componentType":5126,
			"count":482,
			"type":"VEC3"
		},
		{
			"bufferView":15,
			"componentType":5123,
			"count":1428,
			"type":"SCALAR"
		}
	],
	"bufferViews":[
		{
			"buffer":0,
			"byteLength":3000,
			"byteOffset":0,
			"target":34962
		},
		{
			"buffer":0,
			"byteLength":2000,
			"byteOffset":3000,
			"target":34962
		},
		{
			"buffer":0,
			"byteLength":3000,
			"byteOffset":5000,
			"target":34962
		},
		{
			"buffer":0,
			"byteLength":1464,
			"byteOffset":8000,
			"target":34963
		},
		{
			"buffer":0,
			"byteLength":2424,
			"byteOffset":9464,
			"target":34962
		},
		{
			"buffer":0,
			"byteLength":1616,
			"byteOffset":11888,
			"target":34962
		},
		{
			"buffer":0,
			"byteLength":2424,
			"byteOffset":13504,
			"target":34962
		},
		{
			"buffer":0,
			"byteLength":1176,
			"byteOffset":15928,
			"target":34963
		},
		{
			"buffer":0,
			"byteLength":4680,
			"byteOffset":17104,
			"target":34962
		},
		{
			"buffer":0,
			"byteLength":3120,
			"byteOffset":21784,
			"target":34962
		},
		{
			"buffer":0,
			"byteLength":4680,
			"byteOffset":24904,
			"target":34962
		},
		{
			"buffer":0,
			"byteLength":2304,
			"byteOffset":29584,
			"target":34963
		},
		{
			"buffer":0,
			"byteLength":5784,
			"byteOffset":31888,
			"target":34962
		},
		{
			"buffer":0,
			"byteLength":3856,
			"byteOffset":37672,
			"target":34962
		},
		{
			"buffer":0,
			"byteLength":5784,
			"byteOffset":41528,
			"target":34962
		},
		{
			"buffer":0,
			"byteLength":2856,
			"byteOffset":47312,
			"target":34963
		}
	],
	"buffers":[
		{
			"byteLength":50168,
			"uri":"data:application/octet-stream;base64,"
		}
	]
}
